<svg version="1.1" id="Layer_1" xmlns="http://www.w3.org/2000/svg" xmlns:xlink="http://www.w3.org/1999/xlink" x="0px" y="0px"
	 width="100%" viewBox="0 0 500 500" enable-background="new 0 0 500 500" xml:space="preserve">
<path fill="#197E87" opacity="1.000000" stroke="none" 
	d="
M501.000000,195.000000 
	C501.000000,297.333313 501.000000,399.166626 501.000000,500.999939 
	C334.333405,500.999969 167.666794,500.999969 1.000144,501.000000 
	C1.000096,334.333435 1.000096,167.666870 1.000048,1.000234 
	C167.666519,1.000156 334.333038,1.000156 500.999786,1.000078 
	C501.000000,65.500000 501.000000,130.000000 501.000000,195.000000 
M493.216919,335.500122 
	C493.216919,243.739487 493.216919,151.978851 493.216919,60.239235 
	C331.375732,60.239235 170.173264,60.239235 8.997736,60.239235 
	C8.997736,190.591629 8.997736,320.537323 8.997736,450.704407 
	C170.434418,450.704407 331.652008,450.704407 493.216949,450.704407 
	C493.216949,412.440063 493.216949,374.470123 493.216919,335.500122 
z"/>
<path fill="#FEFEFE" opacity="1.000000" stroke="none" 
	d="
M493.216919,336.000122 
	C493.216949,374.470123 493.216949,412.440063 493.216949,450.704407 
	C331.652008,450.704407 170.434418,450.704407 8.997736,450.704407 
	C8.997736,320.537323 8.997736,190.591629 8.997736,60.239235 
	C170.173264,60.239235 331.375732,60.239235 493.216919,60.239235 
	C493.216919,151.978851 493.216919,243.739487 493.216919,336.000122 
M32.396954,104.500076 
	C32.396954,211.909653 32.396954,319.319244 32.396954,426.670258 
	C178.454666,426.670258 323.825439,426.670258 469.324341,426.670258 
	C469.324341,312.269806 469.324341,198.199356 469.324341,83.817627 
	C323.684174,83.817627 178.318375,83.817627 32.396984,83.817627 
	C32.396984,90.570778 32.396984,97.035576 32.396954,104.500076 
z"/>
<path fill="#197E87" opacity="1.000000" stroke="none" 
	d="
M32.396969,104.000229 
	C32.396984,97.035576 32.396984,90.570778 32.396984,83.817627 
	C178.318375,83.817627 323.684174,83.817627 469.324341,83.817627 
	C469.324341,198.199356 469.324341,312.269806 469.324341,426.670258 
	C323.825439,426.670258 178.454666,426.670258 32.396954,426.670258 
	C32.396954,319.319244 32.396954,211.909653 32.396969,104.000229 
M375.215240,146.200287 
	C340.942200,146.200287 306.669189,146.200287 272.218140,146.200287 
	C272.218140,222.342850 272.218140,298.217834 272.218140,374.260681 
	C273.802490,374.351074 275.108887,374.490326 276.415344,374.490692 
	C308.237457,374.500244 340.060120,374.590302 371.881348,374.421814 
	C379.353058,374.382263 386.911316,374.029480 394.274292,372.850128 
	C437.701965,365.894348 460.813751,329.414093 448.342010,287.185699 
	C442.716370,268.137756 429.223511,256.564148 410.530060,250.652313 
	C408.958557,250.155304 407.642700,248.849899 406.208069,247.920044 
	C407.291534,246.618073 408.126526,244.904633 409.496582,244.077133 
	C425.045746,234.685791 433.883484,221.161133 434.476624,202.876617 
	C435.077881,184.342316 429.462921,168.567307 413.396698,157.555893 
	C402.101715,149.814590 389.387970,147.305069 375.215240,146.200287 
M66.035751,150.664917 
	C66.035751,225.116928 66.035751,299.568939 66.035751,374.164703 
	C67.697350,374.305725 68.832451,374.485840 69.967606,374.486145 
	C96.299706,374.493744 122.631798,374.476624 148.963898,374.475464 
	C164.701279,374.474792 180.180023,372.773956 195.245316,367.923309 
	C222.320740,359.205658 242.087280,342.296448 252.734634,315.727936 
	C264.171021,287.190521 264.442261,257.559296 259.460876,227.730072 
	C256.568359,210.409027 250.104187,194.419907 238.606720,180.862885 
	C219.997269,158.919891 195.190689,148.777756 167.430099,147.347290 
	C134.846359,145.668259 102.140701,146.383102 69.489563,145.939209 
	C66.465508,145.898117 65.655571,147.041718 66.035751,150.664917 
z"/>
<path fill="#FEFEFE" opacity="1.000000" stroke="none" 
	d="
M375.683105,146.225235 
	C389.387970,147.305069 402.101715,149.814590 413.396698,157.555893 
	C429.462921,168.567307 435.077881,184.342316 434.476624,202.876617 
	C433.883484,221.161133 425.045746,234.685791 409.496582,244.077133 
	C408.126526,244.904633 407.291534,246.618073 406.208069,247.920044 
	C407.642700,248.849899 408.958557,250.155304 410.530060,250.652313 
	C429.223511,256.564148 442.716370,268.137756 448.342010,287.185699 
	C460.813751,329.414093 437.701965,365.894348 394.274292,372.850128 
	C386.911316,374.029480 379.353058,374.382263 371.881348,374.421814 
	C340.060120,374.590302 308.237457,374.500244 276.415344,374.490692 
	C275.108887,374.490326 273.802490,374.351074 272.218140,374.260681 
	C272.218140,298.217834 272.218140,222.342850 272.218140,146.200287 
	C306.669189,146.200287 340.942200,146.200287 375.683105,146.225235 
M388.028625,274.299133 
	C383.849792,273.234375 379.687256,271.330170 375.489380,271.248810 
	C356.333923,270.877655 337.168579,271.016083 318.006744,270.999390 
	C317.756989,270.999176 317.506866,271.364929 317.272400,271.547760 
	C317.272400,293.829468 317.272400,316.089691 317.272400,338.250153 
	C317.826660,338.491516 318.118500,338.729248 318.411041,338.730133 
	C333.575958,338.776764 348.743256,338.967255 363.904785,338.751862 
	C370.037567,338.664795 376.256287,338.185547 382.260803,336.998901 
	C391.577362,335.157715 398.943054,329.946136 402.563080,320.981232 
	C406.759888,310.587891 406.755127,299.750916 402.830078,289.263763 
	C400.319275,282.555237 395.839111,277.183929 388.028625,274.299133 
M324.558777,237.162247 
	C337.721985,237.101990 350.893463,237.313049 364.046387,236.914322 
	C381.370575,236.389160 390.333740,227.425217 391.390869,210.283630 
	C392.457031,192.996017 384.663818,182.520020 367.497498,180.806274 
	C354.288452,179.487579 340.877319,180.184830 327.555756,180.008041 
	C324.121368,179.962448 320.685852,180.001190 317.322388,180.001190 
	C317.322388,199.387405 317.322388,218.129440 317.322388,237.162231 
	C319.617401,237.162231 321.596039,237.162231 324.558777,237.162247 
z"/>
<path fill="#FEFEFE" opacity="1.000000" stroke="none" 
	d="
M66.036003,150.184433 
	C65.655571,147.041718 66.465508,145.898117 69.489563,145.939209 
	C102.140701,146.383102 134.846359,145.668259 167.430099,147.347290 
	C195.190689,148.777756 219.997269,158.919891 238.606720,180.862885 
	C250.104187,194.419907 256.568359,210.409027 259.460876,227.730072 
	C264.442261,257.559296 264.171021,287.190521 252.734634,315.727936 
	C242.087280,342.296448 222.320740,359.205658 195.245316,367.923309 
	C180.180023,372.773956 164.701279,374.474792 148.963898,374.475464 
	C122.631798,374.476624 96.299706,374.493744 69.967606,374.486145 
	C68.832451,374.485840 67.697350,374.305725 66.035751,374.164703 
	C66.035751,299.568939 66.035751,225.116928 66.036003,150.184433 
M172.893250,187.454056 
	C152.622101,181.987564 131.985641,184.663208 111.439377,183.953339 
	C111.439377,235.117996 111.439377,285.537323 111.439377,336.576660 
	C131.470261,335.769501 151.352524,338.496826 170.864136,333.617737 
	C192.234772,328.273682 206.243073,314.972626 211.811295,293.557526 
	C217.531082,271.559692 217.587418,249.357559 211.932526,227.336945 
	C206.717926,207.030792 194.019714,193.585144 172.893250,187.454056 
z"/>
<path fill="#197E87" opacity="1.000000" stroke="none" 
	d="
M388.370422,274.478577 
	C395.839111,277.183929 400.319275,282.555237 402.830078,289.263763 
	C406.755127,299.750916 406.759888,310.587891 402.563080,320.981232 
	C398.943054,329.946136 391.577362,335.157715 382.260803,336.998901 
	C376.256287,338.185547 370.037567,338.664795 363.904785,338.751862 
	C348.743256,338.967255 333.575958,338.776764 318.411041,338.730133 
	C318.118500,338.729248 317.826660,338.491516 317.272400,338.250153 
	C317.272400,316.089691 317.272400,293.829468 317.272400,271.547760 
	C317.506866,271.364929 317.756989,270.999176 318.006744,270.999390 
	C337.168579,271.016083 356.333923,270.877655 375.489380,271.248810 
	C379.687256,271.330170 383.849792,273.234375 388.370422,274.478577 
z"/>
<path fill="#197D86" opacity="1.000000" stroke="none" 
	d="
M324.066711,237.162231 
	C321.596039,237.162231 319.617401,237.162231 317.322388,237.162231 
	C317.322388,218.129440 317.322388,199.387405 317.322388,180.001190 
	C320.685852,180.001190 324.121368,179.962448 327.555756,180.008041 
	C340.877319,180.184830 354.288452,179.487579 367.497498,180.806274 
	C384.663818,182.520020 392.457031,192.996017 391.390869,210.283630 
	C390.333740,227.425217 381.370575,236.389160 364.046387,236.914322 
	C350.893463,237.313049 337.721985,237.101990 324.066711,237.162231 
z"/>
<path fill="#197E87" opacity="1.000000" stroke="none" 
	d="
M173.271637,187.599731 
	C194.019714,193.585144 206.717926,207.030792 211.932526,227.336945 
	C217.587418,249.357559 217.531082,271.559692 211.811295,293.557526 
	C206.243073,314.972626 192.234772,328.273682 170.864136,333.617737 
	C151.352524,338.496826 131.470261,335.769501 111.439377,336.576660 
	C111.439377,285.537323 111.439377,235.117996 111.439377,183.953339 
	C131.985641,184.663208 152.622101,181.987564 173.271637,187.599731 
z"/>
</svg>