<svg xmlns="http://www.w3.org/2000/svg" viewBox="-10 -10 50 50">
  <g fill="none" stroke="#5db1b9" stroke-linecap="round" stroke-linejoin="round">
    <path d="M26.46 23.99h-23a.92.92 0 0 1-.92-.92V6.82c0-.51.41-.92.92-.92h23c.51 0 .92.41.92.92v16.26c0 .5-.41.91-.92.91"/>
    <line x1="4.95" x2="27.12" y1="10.02" y2="10.02"/>
    <polygon points="19.51,13.95 17.83,12.27 14.96,15.15 12.08,12.27 10.41,13.95 13.28,16.82 10.41,19.7 12.08,21.37 14.96,18.5 17.83,21.37 19.51,19.7 16.63,16.82"/>
  </g>
  <g fill="#5db1b9">
    <circle cx="20.31" cy="7.93" r=".58"/>
    <circle cx="22.56" cy="7.93" r=".58"/>
    <circle cx="24.76" cy="7.93" r=".58"/>
  </g>
</svg>
